<svg width="359" height="423" viewBox="0 0 359 423" fill="none" xmlns="http://www.w3.org/2000/svg">
<path d="M212.584 179.828C222.541 171.414 241.988 176.754 256.041 191.758C270.073 206.761 331.087 287.428 321.157 295.856C311.186 304.257 234.014 237.211 219.982 222.207C205.957 207.224 202.641 188.242 212.584 179.828Z" fill="#AF764F"/>
<path d="M191.509 194.011C190.709 181.374 172.986 172.081 151.911 173.238C130.822 174.415 27.6795 190.45 28.4236 203.079C29.2233 215.724 133.673 220.184 154.748 219.008C175.809 217.839 192.267 206.649 191.509 194.011Z" fill="#AF764F"/>
<path d="M161.207 303.674C161.207 320.039 147.245 408.281 130.015 408.281C112.806 408.281 98.8515 320.032 98.8515 303.674C98.8515 287.316 112.814 274.038 130.015 274.038C147.245 274.038 161.207 287.316 161.207 303.674Z" fill="#232728"/>
<path d="M265.685 303.674C265.685 320.039 251.723 408.281 234.493 408.281C217.284 408.281 203.329 320.032 203.329 303.674C203.329 287.316 217.291 274.038 234.493 274.038C251.723 274.038 265.685 287.316 265.685 303.674Z" fill="#232728"/>
<path d="M271.087 260.383C271.087 366.384 231.719 331.083 183.13 331.083C134.556 331.083 95.1732 366.384 95.1732 260.383C95.1732 199.775 134.57 150.647 183.13 150.647C231.705 150.654 271.087 199.782 271.087 260.383Z" fill="#C48960"/>
<path d="M165.108 408.816C165.108 421.348 149.393 423 130.029 423C110.665 423 94.9507 421.355 94.9507 408.816C94.9507 396.278 110.665 379.021 130.029 379.021C149.393 379.021 165.108 396.279 165.108 408.816Z" fill="#EFA30C"/>
<path d="M165.108 408.816C165.108 421.348 149.393 423 130.029 423C110.665 423 94.9507 421.355 94.9507 408.816" fill="#D68A05"/>
<path d="M269.579 408.816C269.579 421.348 253.864 423 234.5 423C215.136 423 199.422 421.355 199.422 408.816C199.422 396.278 215.136 379.021 234.5 379.021C253.864 379.021 269.579 396.279 269.579 408.816Z" fill="#EFA30C"/>
<path d="M269.579 408.816C269.579 421.348 253.864 423 234.5 423C215.136 423 199.422 421.355 199.422 408.816" fill="#D68A05"/>
<path d="M296.091 104.263C296.091 157.131 245.125 183.708 182.276 183.708C119.413 183.708 68.4321 157.131 68.4321 104.263C68.4321 51.3811 119.412 0 182.275 0C245.125 0 296.091 51.3811 296.091 104.263Z" fill="#D8A17C"/>
<path d="M296.091 104.263C296.091 157.131 245.125 183.708 182.276 183.708C119.413 183.708 68.4321 157.131 68.4321 104.263C68.4321 51.3811 119.413 10.4625 182.276 10.4625C245.125 10.4625 296.091 51.3811 296.091 104.263Z" fill="#C48960"/>
<path d="M296.091 104.263C296.091 157.131 245.125 183.708 182.276 183.708C119.413 183.708 68.4321 157.131 68.4321 104.263" fill="#BC8158"/>
<path d="M144.93 125.255C150.552 125.255 155.109 120.922 155.109 115.578C155.109 110.234 150.552 105.902 144.93 105.902C139.308 105.902 134.75 110.234 134.75 115.578C134.75 120.922 139.308 125.255 144.93 125.255Z" fill="#113E49"/>
<path d="M155.109 115.578C155.109 120.938 150.548 125.261 144.922 125.261C139.298 125.261 134.75 120.938 134.75 115.578" fill="black"/>
<path d="M165.011 135.763C164.469 135.763 163.912 135.578 163.488 135.162C158.516 130.443 151.918 127.845 144.909 127.845H144.895C137.886 127.845 131.302 130.449 126.358 135.155C125.517 135.955 124.161 135.975 123.327 135.162C122.485 134.388 122.457 133.099 123.298 132.293C129.07 126.8 136.732 123.767 144.888 123.767H144.902C153.079 123.767 160.749 126.781 166.533 132.279C167.36 133.066 167.36 134.381 166.533 135.161C166.123 135.578 165.581 135.763 165.011 135.763Z" fill="#BC8158"/>
<path d="M253.204 125.255C258.826 125.255 263.384 120.922 263.384 115.578C263.384 110.234 258.826 105.902 253.204 105.902C247.582 105.902 243.025 110.234 243.025 115.578C243.025 120.922 247.582 125.255 253.204 125.255Z" fill="#113E49"/>
<path d="M243.018 115.578C243.018 120.938 247.564 125.261 253.204 125.261C258.829 125.261 263.377 120.938 263.377 115.578" fill="black"/>
<path d="M233.116 135.763C233.645 135.763 234.201 135.578 234.625 135.162C239.596 130.443 246.194 127.845 253.203 127.845H253.217C260.226 127.845 266.824 130.449 271.769 135.155C272.596 135.955 273.952 135.975 274.8 135.162C275.641 134.388 275.655 133.099 274.814 132.293C269.071 126.8 261.381 123.767 253.224 123.767H253.203C245.041 123.767 237.371 126.781 231.572 132.279C230.758 133.066 230.758 134.381 231.572 135.161C232.004 135.578 232.547 135.763 233.116 135.763Z" fill="#BC8158"/>
<path d="M178.44 140.393C178.44 134.921 188.299 142.594 200.467 142.594C212.621 142.594 222.48 134.921 222.48 140.393C222.48 145.866 212.621 150.307 200.467 150.307C188.299 150.307 178.44 145.866 178.44 140.393Z" fill="#870808"/>
<path d="M98.2742 302.101C108.461 355.617 142.573 336.529 183.123 336.529C223.688 336.529 257.8 355.618 267.972 302.101H98.2742Z" fill="#232728"/>
<path d="M58.746 213.43C58.746 217.085 55.6238 220.04 51.7928 220.04C47.9476 220.04 44.8396 217.085 44.8396 213.43V189.187C44.8396 185.545 47.9476 182.577 51.7928 182.577C55.6238 182.577 58.746 185.545 58.746 189.187V213.43Z" fill="#D1B869"/>
<path d="M51.7786 215.353C51.7786 222.65 45.5555 228.572 37.8722 228.572H14.406C6.72985 228.572 0.499603 222.65 0.499603 215.353V187.264C0.499603 179.967 6.72985 174.045 14.406 174.045H37.8731C45.5563 174.045 51.7795 179.967 51.7795 187.264L51.7786 215.353Z" fill="#870808"/>
<path d="M34.3961 215.353V187.264C34.3961 179.967 28.1729 174.045 20.4897 174.045H14.406C6.72985 174.045 0.499603 179.967 0.499603 187.264V215.353C0.499603 222.65 6.72985 228.572 14.406 228.572H20.4897C28.1729 228.572 34.3961 222.657 34.3961 215.353Z" fill="#B70F0F"/>
<path d="M311.811 266.523C314.53 263.939 318.924 263.939 321.643 266.523C324.362 269.108 324.362 273.284 321.643 275.869L303.607 293.014C300.902 295.591 296.494 295.598 293.775 293.014C291.056 290.429 291.07 286.246 293.775 283.668L311.811 266.523Z" fill="#D1B869"/>
<path d="M318.167 269.841C323.598 264.679 332.4 264.679 337.831 269.841L354.427 285.617C359.858 290.779 359.858 299.147 354.427 304.309L333.526 324.17C328.096 329.332 319.293 329.332 313.863 324.176L297.266 308.4C291.835 303.238 291.835 294.864 297.266 289.702L318.167 269.841Z" fill="#870808"/>
<path d="M330.46 281.527L309.559 301.395C304.142 306.55 304.128 314.924 309.559 320.086L313.863 324.177C319.293 329.333 328.096 329.333 333.526 324.171L354.427 304.31C359.858 299.147 359.858 290.78 354.427 285.618L350.123 281.527C344.693 276.358 335.89 276.358 330.46 281.527Z" fill="#B70F0F"/>
<path d="M183.047 321.936C217.128 321.936 244.756 311.023 244.756 297.561C244.756 284.099 217.128 273.185 183.047 273.185C148.966 273.185 121.338 284.099 121.338 297.561C121.338 311.023 148.966 321.936 183.047 321.936Z" fill="#EFA30C"/>
<path d="M183.019 273.185C217.103 273.185 244.728 284.091 244.728 297.561C244.728 311.031 217.103 321.936 183.019 321.936" fill="#D68A05"/>
</svg>
