<?xml version="1.0" encoding="iso-8859-1"?>
<!-- Uploaded to: SVG Repo, www.svgrepo.com, Generator: SVG Repo Mixer Tools -->
<svg height="800px" width="800px" version="1.1" id="Layer_1" xmlns="http://www.w3.org/2000/svg" xmlns:xlink="http://www.w3.org/1999/xlink" 
	 viewBox="0 0 412.21 412.21" xml:space="preserve">
<g>
	<path style="fill:#C42727;" d="M303.43,178.5H108.658c-6.691,0-12.114-5.424-12.114-12.114v-45.771
		c0-6.691,5.424-12.114,12.114-12.114H303.43c6.691,0,12.114,5.424,12.114,12.114v45.771C315.544,173.076,310.12,178.5,303.43,178.5
		z"/>
	<path style="fill:#D83935;" d="M323.62,412.2H88.59c0,0,44.74-161.95,46.94-162.98c5.97-2.78,12.35-4.85,19.01-6.11
		c0.99-0.19,1.99-0.36,3-0.5c3.97-0.61,8.04-0.92,12.17-0.92c0,0,80.99,0.31,84.96,0.92c1.01,0.14,2.01,0.31,3,0.5
		c6.66,1.26,13.03,3.33,19.01,6.12C278.88,250.26,323.62,412.2,323.62,412.2z"/>
	<path style="fill:#FFD3AE;" d="M129.09,252.58v159.63h-40.5v-89.4C88.59,292.81,104.88,266.61,129.09,252.58z"/>
	<path style="fill:#FFD3AE;" d="M323.62,322.81v89.4h-40.5V252.59C307.33,266.61,323.62,292.81,323.62,322.81z"/>
	<path style="fill:#F2F2F2;" d="M254.67,242.61V282c0,12.98-5.05,25.18-14.23,34.34c-9.17,9.17-21.36,14.22-34.34,14.22
		c-26.78,0-48.56-21.78-48.56-48.56v-39.39c3.97-0.61,8.04-0.92,12.17-0.92h72.79C246.63,241.69,250.7,242,254.67,242.61z"/>
	<path style="fill:#FFD3AE;" d="M249.67,219.025V282c0,12.02-4.87,22.92-12.76,30.8c-7.88,7.88-18.78,12.76-30.81,12.76
		c-24.06,0-43.56-19.5-43.56-43.56v-62.975H249.67z"/>
	<g>
		<g>
			<circle style="fill:#E5B591;" cx="138.726" cy="140.205" r="27.89"/>
			<circle style="fill:#E5B591;" cx="273.361" cy="140.205" r="27.89"/>
		</g>
	</g>
	<path style="fill:#E5B591;" d="M249.67,219.025v24.06c-12.86,7.29-27.73,11.45-43.57,11.45s-30.7-4.16-43.56-11.45v-24.06H249.67z"
		/>
	<path style="fill:#FFD3AE;" d="M206.044,239.205L206.044,239.205c-40.532,0-74.168-31.335-77.034-71.766l-5.157-72.741
		c-3.38-47.681,34.39-88.224,82.191-88.224l0,0c47.801,0,85.571,40.542,82.191,88.224l-5.157,72.741
		C280.212,207.87,246.576,239.205,206.044,239.205z"/>
	<g>
		<path style="fill:#E5B591;" d="M154.968,127.538h35.044c6.522,0,11.81,5.287,11.81,11.81v25.558c0,2.643,2.142,4.785,4.785,4.785
			h11.183l-9.485,3.366c-3.672,1.303-7.767,0.37-10.513-2.395L154.968,127.538z"/>
	</g>
	<g>
		<path style="fill:#FFFFFF;" d="M227.055,186.474c0,2.475-0.432,4.842-1.229,7.052c-0.374,1.063-0.839,2.085-1.371,3.057
			c-3.572,6.462-10.449,10.839-18.356,10.839c-7.916,0-14.793-4.377-18.365-10.839c-0.54-0.972-1.005-1.993-1.379-3.057
			c-0.797-2.209-1.221-4.577-1.221-7.052H227.055z"/>
		<path style="fill:#333333;" d="M225.833,193.526c-0.374,1.063-0.839,2.085-1.371,3.057c-3.572,6.462-10.449,10.839-18.356,10.839
			c-7.916,0-14.793-4.377-18.365-10.839c-0.54-0.972-1.005-1.993-1.379-3.057H225.833z"/>
	</g>
	<path style="fill:#935827;" d="M182.726,131.975c-0.322,0-0.65-0.052-0.972-0.163c-6.947-2.379-14.601-2.379-21.548,0
		c-1.567,0.537-3.273-0.299-3.81-1.867c-0.537-1.567,0.299-3.273,1.867-3.81c8.201-2.808,17.233-2.808,25.435,0
		c1.567,0.537,2.403,2.243,1.867,3.81C185.137,131.191,183.973,131.975,182.726,131.975z"/>
	<path style="fill:#935827;" d="M252.852,131.975c-0.322,0-0.649-0.052-0.972-0.163c-6.947-2.379-14.6-2.379-21.547,0
		c-1.569,0.535-3.273-0.299-3.81-1.867c-0.537-1.567,0.299-3.273,1.866-3.81c8.201-2.808,17.232-2.808,25.434,0
		c1.567,0.537,2.403,2.243,1.866,3.81C255.264,131.191,254.099,131.975,252.852,131.975z"/>
	<g>
		<path style="fill:#333333;" d="M170.114,14.333c0,0-15.333-7-26,1.333c-9.038,7.061-10.14,21.833-10.14,21.833L171.447,55l9-34
			L170.114,14.333z"/>
		<path style="fill:#333333;" d="M241.974,14.333c0,0,15.333-7,26,1.333c9.038,7.061,10.14,21.833,10.14,21.833L240.641,55l-9-34
			L241.974,14.333z"/>
	</g>
	<g>
		<circle style="fill:#FCC9A2;" cx="250.348" cy="176.474" r="16"/>
		<circle style="fill:#FCC9A2;" cx="161.848" cy="176.474" r="16"/>
	</g>
	<path style="fill:#C42727;" d="M278.694,359.144v10.59c0,15.87-12.86,28.74-28.73,28.74h-87.71c-15.87,0-28.74-12.87-28.74-28.74
		v-10.59h0.4c2.25,13.62,14.09,24,28.34,24h87.71c14.25,0,26.08-10.38,28.33-24H278.694z"/>
	<path style="fill:#333333;" d="M179.433,99.333c0,0,10,12,22.333,13.333C214.1,114,234.1,104,246.433,109c12.333,5,22,16,20.667,39
		c-1.333,23,17-43.667,17-43.667"/>
	<path style="fill:#D83935;" d="M230.005,0h-47.922c-6.097,0-11.039,4.942-11.039,11.039V49.5h70V11.039
		C241.044,4.942,236.101,0,230.005,0z"/>
	<path style="fill:#D83935;" d="M282.958,37.5H135.294c-13.531,0-24.5,10.969-24.5,24.5l0,0v42v85.859
		c0,11.521,9.34,20.861,20.861,20.861h14.689h4.455c6.4,0,11.589-5.188,11.589-11.589v-13.39c0-5.396-2.921-10.37-7.635-12.998l0,0
		c-5.191-2.894-8.408-8.371-8.408-14.315V122.13c0-10.013,8.117-18.13,18.13-18.13h83.139c10.013,0,18.13,8.117,18.13,18.13v37.08
		c0,5.743-3.259,10.989-8.408,13.533l0,0c-4.675,2.31-7.635,7.073-7.635,12.288v14.1c0,6.4,5.188,11.589,11.589,11.589h4.455h14.689
		c11.521,0,20.861-9.34,20.861-20.861V104V62v-6.164C301.294,45.709,293.084,37.5,282.958,37.5z"/>
	<ellipse style="fill:#F2F2F2;" cx="206.044" cy="74" rx="24" ry="14"/>
	<g>
		<path style="fill:#F2F2F2;" d="M135.53,249.22v95.34c0,3.55-2.88,6.44-6.44,6.44v-98.42
			C131.18,251.37,133.33,250.25,135.53,249.22z"/>
		<path style="fill:#F2F2F2;" d="M283.12,252.59V351c-3.56,0-6.44-2.89-6.44-6.44v-95.33C278.88,250.26,281.03,251.38,283.12,252.59
			z"/>
	</g>
	<g>
		<circle style="fill:#333333;" cx="170.98" cy="144.374" r="6"/>
		<circle style="fill:#333333;" cx="241.107" cy="144.374" r="6"/>
	</g>
</g>
</svg>